<?xml version="1.0" encoding="UTF-8" standalone="no"?><!DOCTYPE svg PUBLIC "-//W3C//DTD SVG 1.1//EN" "http://www.w3.org/Graphics/SVG/1.1/DTD/svg11.dtd"><svg width="100%" height="100%" viewBox="0 0 250 40" version="1.1" xmlns="http://www.w3.org/2000/svg" xmlns:xlink="http://www.w3.org/1999/xlink" xml:space="preserve" xmlns:serif="http://www.serif.com/" style="fill-rule:evenodd;clip-rule:evenodd;stroke-linejoin:round;stroke-miterlimit:2;"><g><circle cx="230" cy="20" r="20" style="fill:#3363ad;"/><path d="M6.87,17.314l-2.99,-0l-0,10.363l-1.779,0l-0,-10.363l-2.101,-0l0,-0.804l2.101,-0.643l-0,-0.654c-0,-2.886 1.261,-4.329 3.783,-4.329c0.621,-0 1.35,0.125 2.186,0.375l-0.461,1.425c-0.686,-0.221 -1.272,-0.332 -1.758,-0.332c-0.671,0 -1.168,0.223 -1.489,0.67c-0.322,0.446 -0.482,1.163 -0.482,2.149l-0,0.761l2.99,-0l-0,1.382Zm3.922,10.363l-1.779,0l-0,-11.745l1.779,-0l-0,11.745Zm-1.929,-14.928c-0,-0.408 0.1,-0.706 0.3,-0.895c0.2,-0.19 0.45,-0.284 0.75,-0.284c0.286,-0 0.532,0.096 0.74,0.289c0.207,0.193 0.31,0.49 0.31,0.89c0,0.4 -0.103,0.698 -0.31,0.894c-0.208,0.197 -0.454,0.295 -0.74,0.295c-0.3,0 -0.55,-0.098 -0.75,-0.295c-0.2,-0.196 -0.3,-0.494 -0.3,-0.894Z" style="fill:#3363ad;fill-rule:nonzero;"/><path d="M22.602,27.677l-0,-7.598c-0,-0.957 -0.218,-1.672 -0.654,-2.143c-0.436,-0.472 -1.118,-0.708 -2.047,-0.708c-1.229,0 -2.129,0.332 -2.7,0.997c-0.572,0.664 -0.858,1.761 -0.858,3.29l0,6.162l-1.779,0l0,-11.745l1.447,-0l0.289,1.607l0.086,0c0.364,-0.579 0.875,-1.027 1.533,-1.345c0.657,-0.318 1.389,-0.477 2.197,-0.477c1.414,0 2.479,0.341 3.193,1.024c0.715,0.682 1.072,1.773 1.072,3.274l-0,7.662l-1.779,0Z" style="fill:#3363ad;fill-rule:nonzero;"/><path d="M35.259,27.677l-0.354,-1.672l-0.086,0c-0.586,0.736 -1.17,1.235 -1.752,1.495c-0.582,0.261 -1.309,0.392 -2.181,0.392c-1.165,-0 -2.077,-0.301 -2.738,-0.901c-0.661,-0.6 -0.991,-1.454 -0.991,-2.561c-0,-2.372 1.896,-3.615 5.69,-3.729l1.994,-0.065l-0,-0.729c-0,-0.921 -0.199,-1.602 -0.595,-2.041c-0.397,-0.439 -1.031,-0.659 -1.902,-0.659c-0.979,-0 -2.087,0.3 -3.323,0.9l-0.546,-1.361c0.578,-0.314 1.213,-0.561 1.902,-0.739c0.689,-0.179 1.381,-0.268 2.074,-0.268c1.4,-0 2.438,0.31 3.113,0.932c0.675,0.622 1.013,1.618 1.013,2.99l-0,8.016l-1.318,0Zm-4.019,-1.254c1.107,0 1.977,-0.303 2.609,-0.911c0.633,-0.607 0.949,-1.457 0.949,-2.55l-0,-1.061l-1.779,0.075c-1.415,0.05 -2.435,0.27 -3.06,0.659c-0.625,0.389 -0.938,0.995 -0.938,1.816c0,0.643 0.195,1.133 0.584,1.469c0.39,0.335 0.935,0.503 1.635,0.503Z" style="fill:#3363ad;fill-rule:nonzero;"/><path d="M48.28,27.677l-0,-7.598c-0,-0.957 -0.218,-1.672 -0.654,-2.143c-0.436,-0.472 -1.118,-0.708 -2.047,-0.708c-1.229,0 -2.129,0.332 -2.701,0.997c-0.571,0.664 -0.857,1.761 -0.857,3.29l-0,6.162l-1.779,0l-0,-11.745l1.447,-0l0.289,1.607l0.086,0c0.364,-0.579 0.875,-1.027 1.532,-1.345c0.658,-0.318 1.39,-0.477 2.197,-0.477c1.415,0 2.479,0.341 3.194,1.024c0.714,0.682 1.072,1.773 1.072,3.274l-0,7.662l-1.779,0Z" style="fill:#3363ad;fill-rule:nonzero;"/><path d="M61.225,27.677l-8.519,0l-0,-1.211l6.408,-9.152l-6.012,-0l0,-1.382l7.963,-0l-0,1.382l-6.323,8.981l6.483,-0l0,1.382Z" style="fill:#3363ad;fill-rule:nonzero;"/><path d="M66.552,27.677l-4.458,-11.745l1.907,-0l2.529,6.965c0.572,1.629 0.908,2.687 1.008,3.173l0.085,-0c0.079,-0.379 0.327,-1.163 0.745,-2.353c0.418,-1.189 1.356,-3.785 2.813,-7.785l1.908,-0l-4.458,11.745l-2.079,0Z" style="fill:#3363ad;fill-rule:nonzero;"/><path d="M79.937,27.892c-1.736,-0 -3.106,-0.529 -4.11,-1.587c-1.004,-1.057 -1.506,-2.525 -1.506,-4.404c0,-1.894 0.467,-3.397 1.399,-4.512c0.932,-1.115 2.185,-1.672 3.756,-1.672c1.472,0 2.637,0.484 3.494,1.452c0.857,0.968 1.286,2.245 1.286,3.832l0,1.125l-8.091,-0c0.036,1.379 0.384,2.425 1.045,3.14c0.661,0.714 1.591,1.072 2.791,1.072c1.265,-0 2.515,-0.265 3.751,-0.793l0,1.586c-0.628,0.271 -1.223,0.466 -1.784,0.584c-0.561,0.118 -1.238,0.177 -2.031,0.177Zm-0.482,-10.685c-0.943,-0 -1.695,0.307 -2.256,0.921c-0.561,0.615 -0.891,1.465 -0.991,2.551l6.14,0c0,-1.122 -0.25,-1.981 -0.75,-2.577c-0.5,-0.597 -1.214,-0.895 -2.143,-0.895Z" style="fill:#3363ad;fill-rule:nonzero;"/><path d="M92.647,15.717c0.522,0 0.99,0.043 1.404,0.129l-0.246,1.65c-0.486,-0.107 -0.915,-0.161 -1.286,-0.161c-0.95,0 -1.763,0.386 -2.438,1.158c-0.676,0.771 -1.013,1.732 -1.013,2.883l-0,6.301l-1.779,0l-0,-11.745l1.468,-0l0.204,2.175l0.085,0c0.436,-0.764 0.961,-1.354 1.576,-1.768c0.614,-0.415 1.289,-0.622 2.025,-0.622Z" style="fill:#3363ad;fill-rule:nonzero;"/><path d="M105.861,15.932l0,1.125l-2.175,0.257c0.2,0.25 0.378,0.577 0.536,0.981c0.157,0.403 0.235,0.859 0.235,1.366c0,1.15 -0.393,2.068 -1.179,2.754c-0.785,0.686 -1.864,1.029 -3.236,1.029c-0.35,0 -0.679,-0.029 -0.986,-0.086c-0.757,0.4 -1.136,0.904 -1.136,1.511c0,0.322 0.132,0.559 0.397,0.713c0.264,0.154 0.718,0.23 1.361,0.23l2.079,0c1.271,0 2.248,0.268 2.931,0.804c0.682,0.536 1.023,1.315 1.023,2.337c0,1.3 -0.521,2.291 -1.564,2.973c-1.044,0.683 -2.565,1.024 -4.566,1.024c-1.536,-0 -2.72,-0.286 -3.552,-0.857c-0.833,-0.572 -1.249,-1.379 -1.249,-2.422c0,-0.715 0.229,-1.333 0.686,-1.854c0.457,-0.522 1.1,-0.876 1.929,-1.061c-0.3,-0.136 -0.552,-0.347 -0.756,-0.633c-0.203,-0.286 -0.305,-0.618 -0.305,-0.996c-0,-0.429 0.114,-0.804 0.343,-1.126c0.229,-0.321 0.589,-0.632 1.082,-0.932c-0.607,-0.25 -1.102,-0.675 -1.484,-1.275c-0.382,-0.601 -0.573,-1.286 -0.573,-2.058c-0,-1.286 0.385,-2.277 1.157,-2.974c0.772,-0.697 1.865,-1.045 3.279,-1.045c0.615,0 1.169,0.072 1.662,0.215l4.061,-0Zm-9.366,13.717c-0,0.636 0.268,1.118 0.803,1.447c0.536,0.329 1.304,0.493 2.305,0.493c1.493,-0 2.598,-0.223 3.316,-0.67c0.718,-0.446 1.078,-1.052 1.078,-1.816c-0,-0.636 -0.197,-1.077 -0.59,-1.324c-0.393,-0.246 -1.132,-0.37 -2.218,-0.37l-2.133,0c-0.807,0 -1.436,0.193 -1.886,0.579c-0.45,0.386 -0.675,0.94 -0.675,1.661Zm0.964,-9.956c0,0.822 0.232,1.443 0.697,1.865c0.464,0.421 1.111,0.632 1.94,0.632c1.736,0 2.604,-0.843 2.604,-2.529c-0,-1.765 -0.879,-2.647 -2.637,-2.647c-0.835,-0 -1.479,0.225 -1.929,0.675c-0.45,0.45 -0.675,1.118 -0.675,2.004Z" style="fill:#3363ad;fill-rule:nonzero;"/><rect x="108.273" y="11.002" width="1.779" height="16.675" style="fill:#3363ad;fill-rule:nonzero;"/><path d="M118.786,27.892c-1.736,-0 -3.106,-0.529 -4.11,-1.587c-1.004,-1.057 -1.506,-2.525 -1.506,-4.404c0,-1.894 0.466,-3.397 1.399,-4.512c0.932,-1.115 2.184,-1.672 3.756,-1.672c1.472,0 2.636,0.484 3.494,1.452c0.857,0.968 1.286,2.245 1.286,3.832l-0,1.125l-8.092,-0c0.036,1.379 0.384,2.425 1.045,3.14c0.661,0.714 1.592,1.072 2.792,1.072c1.265,-0 2.515,-0.265 3.751,-0.793l-0,1.586c-0.629,0.271 -1.224,0.466 -1.784,0.584c-0.561,0.118 -1.238,0.177 -2.031,0.177Zm-0.482,-10.685c-0.944,-0 -1.696,0.307 -2.256,0.921c-0.561,0.615 -0.892,1.465 -0.992,2.551l6.141,0c0,-1.122 -0.25,-1.981 -0.75,-2.577c-0.5,-0.597 -1.215,-0.895 -2.143,-0.895Z" style="fill:#3363ad;fill-rule:nonzero;"/><path d="M127.917,27.677l-1.779,0l-0,-11.745l1.779,-0l-0,11.745Zm-1.929,-14.928c-0,-0.408 0.1,-0.706 0.3,-0.895c0.2,-0.19 0.45,-0.284 0.75,-0.284c0.286,-0 0.532,0.096 0.739,0.289c0.207,0.193 0.311,0.49 0.311,0.89c0,0.4 -0.104,0.698 -0.311,0.894c-0.207,0.197 -0.453,0.295 -0.739,0.295c-0.3,0 -0.55,-0.098 -0.75,-0.295c-0.2,-0.196 -0.3,-0.494 -0.3,-0.894Z" style="fill:#3363ad;fill-rule:nonzero;"/><path d="M136.383,27.892c-1.701,-0 -3.017,-0.524 -3.949,-1.57c-0.933,-1.047 -1.399,-2.528 -1.399,-4.443c0,-1.964 0.474,-3.483 1.42,-4.554c0.947,-1.072 2.295,-1.608 4.046,-1.608c0.564,0 1.129,0.061 1.693,0.182c0.564,0.122 1.007,0.265 1.329,0.429l-0.547,1.511c-0.393,-0.157 -0.821,-0.287 -1.286,-0.391c-0.464,-0.104 -0.875,-0.155 -1.232,-0.155c-2.386,-0 -3.58,1.521 -3.58,4.565c0,1.443 0.292,2.551 0.874,3.322c0.582,0.772 1.445,1.158 2.588,1.158c0.979,-0 1.983,-0.211 3.011,-0.633l0,1.576c-0.785,0.407 -1.775,0.611 -2.968,0.611Z" style="fill:#3363ad;fill-rule:nonzero;"/><path d="M150.176,27.677l-0,-7.598c-0,-0.957 -0.218,-1.672 -0.654,-2.143c-0.436,-0.472 -1.118,-0.708 -2.047,-0.708c-1.236,0 -2.138,0.336 -2.706,1.008c-0.568,0.671 -0.852,1.771 -0.852,3.3l-0,6.141l-1.779,0l-0,-16.675l1.779,-0l-0,5.047c-0,0.608 -0.029,1.111 -0.086,1.511l0.107,0c0.35,-0.564 0.849,-1.009 1.495,-1.334c0.647,-0.325 1.385,-0.487 2.213,-0.487c1.436,-0 2.513,0.341 3.231,1.023c0.718,0.682 1.078,1.767 1.078,3.253l-0,7.662l-1.779,0Z" style="fill:#3363ad;fill-rule:nonzero;"/><path d="M155.352,26.541c-0,-0.478 0.109,-0.841 0.327,-1.088c0.218,-0.246 0.53,-0.369 0.937,-0.369c0.415,-0 0.738,0.123 0.97,0.369c0.232,0.247 0.349,0.61 0.349,1.088c-0,0.465 -0.118,0.822 -0.354,1.072c-0.236,0.25 -0.557,0.375 -0.965,0.375c-0.364,-0 -0.666,-0.113 -0.905,-0.338c-0.24,-0.225 -0.359,-0.594 -0.359,-1.109Z" style="fill:#3363ad;fill-rule:nonzero;"/><path d="M166.144,27.892c-1.701,-0 -3.017,-0.524 -3.95,-1.57c-0.932,-1.047 -1.398,-2.528 -1.398,-4.443c-0,-1.964 0.473,-3.483 1.42,-4.554c0.947,-1.072 2.295,-1.608 4.046,-1.608c0.564,0 1.128,0.061 1.693,0.182c0.564,0.122 1.007,0.265 1.329,0.429l-0.547,1.511c-0.393,-0.157 -0.822,-0.287 -1.286,-0.391c-0.464,-0.104 -0.875,-0.155 -1.232,-0.155c-2.387,-0 -3.58,1.521 -3.58,4.565c0,1.443 0.291,2.551 0.874,3.322c0.582,0.772 1.445,1.158 2.588,1.158c0.979,-0 1.982,-0.211 3.011,-0.633l0,1.576c-0.786,0.407 -1.775,0.611 -2.968,0.611Z" style="fill:#3363ad;fill-rule:nonzero;"/><path d="M182.037,21.794c-0,1.914 -0.483,3.409 -1.447,4.485c-0.965,1.075 -2.297,1.613 -3.997,1.613c-1.051,-0 -1.983,-0.247 -2.798,-0.74c-0.814,-0.493 -1.443,-1.2 -1.886,-2.122c-0.443,-0.922 -0.664,-2 -0.664,-3.236c-0,-1.915 0.479,-3.407 1.436,-4.475c0.957,-1.068 2.286,-1.602 3.987,-1.602c1.643,0 2.949,0.547 3.917,1.64c0.968,1.093 1.452,2.572 1.452,4.437Zm-8.949,-0c0,1.5 0.3,2.643 0.9,3.429c0.601,0.786 1.483,1.179 2.647,1.179c1.165,-0 2.049,-0.391 2.653,-1.174c0.604,-0.782 0.905,-1.927 0.905,-3.434c0,-1.494 -0.301,-2.628 -0.905,-3.403c-0.604,-0.775 -1.495,-1.163 -2.674,-1.163c-1.165,0 -2.043,0.382 -2.636,1.147c-0.593,0.764 -0.89,1.904 -0.89,3.419Z" style="fill:#3363ad;fill-rule:nonzero;"/><path d="M200.127,27.677l-0,-7.641c-0,-0.936 -0.2,-1.638 -0.6,-2.106c-0.4,-0.468 -1.022,-0.702 -1.865,-0.702c-1.107,0 -1.926,0.318 -2.454,0.954c-0.529,0.636 -0.793,1.615 -0.793,2.936l-0,6.559l-1.779,0l-0,-7.641c-0,-0.936 -0.2,-1.638 -0.6,-2.106c-0.4,-0.468 -1.026,-0.702 -1.876,-0.702c-1.114,0 -1.931,0.334 -2.449,1.002c-0.518,0.668 -0.777,1.763 -0.777,3.285l0,6.162l-1.779,0l0,-11.745l1.447,-0l0.29,1.607l0.085,0c0.336,-0.572 0.809,-1.018 1.42,-1.34c0.611,-0.321 1.295,-0.482 2.053,-0.482c1.836,0 3.036,0.665 3.6,1.994l0.086,-0c0.35,-0.615 0.857,-1.101 1.522,-1.458c0.664,-0.357 1.422,-0.536 2.272,-0.536c1.329,0 2.324,0.341 2.985,1.024c0.66,0.682 0.991,1.773 0.991,3.274l-0,7.662l-1.779,0Z" style="fill:#3363ad;fill-rule:nonzero;"/></g><path d="M230.319,20.219l-0.515,-0c-0.965,-0 -1.748,-0.784 -1.748,-1.749l-0,-7.409c-0,-0.965 0.783,-1.748 1.748,-1.748l12.99,-0c0.965,-0 1.748,0.783 1.748,1.748l0,7.409c0,0.965 -0.783,1.749 -1.748,1.749l-8.819,-0l-3.692,3.145l0.036,-3.145Zm7.98,-4.311c-0,0.435 -0.142,0.785 -0.425,1.051c-0.283,0.266 -0.66,0.434 -1.13,0.504l-0,1.063l-0.887,0l0,-1.039c-0.65,-0.054 -1.216,-0.258 -1.7,-0.612l0.517,-0.798c0.501,0.317 0.991,0.475 1.471,0.475c0.307,0 0.548,-0.048 0.723,-0.145c0.175,-0.096 0.262,-0.241 0.262,-0.435c0,-0.118 -0.028,-0.216 -0.085,-0.294c-0.056,-0.078 -0.156,-0.153 -0.299,-0.225c-0.142,-0.073 -0.356,-0.166 -0.642,-0.278l-0.186,-0.073c-0.345,-0.134 -0.622,-0.263 -0.832,-0.387c-0.21,-0.123 -0.377,-0.282 -0.501,-0.475c-0.124,-0.193 -0.186,-0.438 -0.186,-0.733c-0,-0.274 0.066,-0.509 0.197,-0.705c0.132,-0.196 0.308,-0.352 0.528,-0.468c0.22,-0.115 0.465,-0.194 0.733,-0.237l0,-1.064l0.887,0l-0,1.048c0.245,0.032 0.492,0.095 0.741,0.189c0.248,0.094 0.485,0.219 0.709,0.375l-0.522,0.789c-0.257,-0.156 -0.485,-0.268 -0.683,-0.338c-0.198,-0.07 -0.412,-0.105 -0.643,-0.105c-0.257,0 -0.451,0.043 -0.582,0.129c-0.131,0.086 -0.197,0.201 -0.197,0.346c0,0.092 0.027,0.174 0.081,0.246c0.053,0.073 0.149,0.145 0.289,0.218c0.139,0.072 0.34,0.157 0.602,0.253l0.177,0.065c0.343,0.129 0.62,0.25 0.832,0.363c0.211,0.112 0.389,0.273 0.534,0.483c0.144,0.209 0.217,0.481 0.217,0.814Z" style="fill:#fff;"/><path d="M226.345,12.692l-0,2.584l-6.046,0l0,11.555l6.556,0.013l0.36,0.668l4.261,0.058l0.157,-0.716l6.483,0.012l0,-4.982l2.433,-0l-0,4.987l1.715,0.004c0.101,-0 0.499,3.138 -1.588,3.152c-0.469,0.004 -1.449,0.071 -1.963,0.073c-0.155,0.043 0.169,0 0,0l-19.266,0c-0.157,0 0.145,0.037 -0,0c-0.332,0.002 -1.119,-0.053 -1.45,-0.05c-2.705,0.019 -1.882,-3.227 -1.743,-3.227l1.357,0.003l0,-12.298c0,-1.013 0.823,-1.836 1.836,-1.836l6.898,0Z" style="fill:#fff;"/></svg>